<svg xmlns="http://www.w3.org/2000/svg" xmlns:xlink="http://www.w3.org/1999/xlink" xmlns:svgjs="http://svgjs.com/svgjs" width="512" height="512" x="0" y="0" viewBox="0 0 128 128" style="enable-background:new 0 0 512 512" xml:space="preserve" class=""><g><g xmlns="http://www.w3.org/2000/svg"><path d="M121.25,0H6.75A6.758,6.758,0,0,0,0,6.75V108.71a6.758,6.758,0,0,0,6.75,6.75h4.5v6.79A5.757,5.757,0,0,0,17,128H38.667a5.757,5.757,0,0,0,5.75-5.75v-6.79H83.583v6.79a5.757,5.757,0,0,0,5.75,5.75H111a5.757,5.757,0,0,0,5.75-5.75v-6.79h4.5a6.758,6.758,0,0,0,6.75-6.75V6.75A6.758,6.758,0,0,0,121.25,0Zm3.25,81.27H102.833V69.1H124.5Zm0-34.913H102.833V34.19H124.5Zm-10-15.667H101.083a1.751,1.751,0,0,0-1.75,1.75V48.107a1.751,1.751,0,0,0,1.75,1.75H114.5V65.6H101.083a1.751,1.751,0,0,0-1.75,1.75h0V83.02a1.751,1.751,0,0,0,1.75,1.75H114.5v17.19H13.5V13.5h101ZM118,65.6V49.857h6.5V65.6ZM40.917,122.25a2.253,2.253,0,0,1-2.25,2.25H17a2.252,2.252,0,0,1-2.25-2.25v-6.79H40.917Zm72.333,0A2.252,2.252,0,0,1,111,124.5H89.333a2.253,2.253,0,0,1-2.25-2.25v-6.79H113.25Zm8-10.29H6.75a3.254,3.254,0,0,1-3.25-3.25V6.75A3.254,3.254,0,0,1,6.75,3.5h114.5a3.254,3.254,0,0,1,3.25,3.25V30.69H118V11.75A1.751,1.751,0,0,0,116.25,10H11.75A1.751,1.751,0,0,0,10,11.75v91.96a1.751,1.751,0,0,0,1.75,1.75h104.5a1.751,1.751,0,0,0,1.75-1.75V84.77h6.5v23.94A3.254,3.254,0,0,1,121.25,111.96Z" fill="#90c20e" data-original="#000000" style="" class=""></path><path d="M56.417,66.3A8.567,8.567,0,1,0,47.85,57.73,8.576,8.576,0,0,0,56.417,66.3Zm0-13.634A5.067,5.067,0,1,1,51.35,57.73,5.072,5.072,0,0,1,56.417,52.663Z" fill="#90c20e" data-original="#000000" style="" class=""></path><path d="M28.25,63.48H38.772a18.49,18.49,0,0,0,1.11,2.653l-7.448,7.448a4.748,4.748,0,0,0,0,6.717l1.415,1.415a4.749,4.749,0,0,0,6.716,0l7.448-7.448a18.5,18.5,0,0,0,2.654,1.11V85.9a4.754,4.754,0,0,0,4.75,4.75h2a4.755,4.755,0,0,0,4.75-4.75V75.375a18.537,18.537,0,0,0,2.653-1.11l7.448,7.448a4.749,4.749,0,0,0,6.716,0L80.4,80.3a4.748,4.748,0,0,0,0-6.717l-7.448-7.448a18.377,18.377,0,0,0,1.11-2.653H84.583a4.755,4.755,0,0,0,4.75-4.75v-2a4.755,4.755,0,0,0-4.75-4.75H74.061a18.377,18.377,0,0,0-1.11-2.653L80.4,41.879a4.748,4.748,0,0,0,0-6.717l-1.415-1.415a4.749,4.749,0,0,0-6.716,0L64.82,41.2a18.537,18.537,0,0,0-2.653-1.11V29.563a4.756,4.756,0,0,0-4.75-4.75h-2a4.755,4.755,0,0,0-4.75,4.75V40.085a18.5,18.5,0,0,0-2.654,1.11l-7.448-7.448a4.749,4.749,0,0,0-6.716,0l-1.415,1.415a4.748,4.748,0,0,0,0,6.717l7.448,7.448a18.49,18.49,0,0,0-1.11,2.653H28.25a4.756,4.756,0,0,0-4.75,4.75v2A4.756,4.756,0,0,0,28.25,63.48ZM56.417,42.663A15.067,15.067,0,1,1,41.35,57.73,15.083,15.083,0,0,1,56.417,42.663ZM38.091,79.238a1.251,1.251,0,0,1-1.768,0l-1.415-1.415a1.251,1.251,0,0,1,0-1.767l6.9-6.9a18.646,18.646,0,0,0,3.182,3.183ZM58.667,85.9a1.251,1.251,0,0,1-1.25,1.25h-2a1.25,1.25,0,0,1-1.25-1.25V76.147a18.612,18.612,0,0,0,4.5,0Zm19.258-9.84a1.251,1.251,0,0,1,0,1.767L76.51,79.238a1.251,1.251,0,0,1-1.768,0l-6.9-6.9a18.718,18.718,0,0,0,3.183-3.182ZM84.583,55.48a1.251,1.251,0,0,1,1.25,1.25v2a1.251,1.251,0,0,1-1.25,1.25h-9.75a18.511,18.511,0,0,0,0-4.5ZM74.742,36.222a1.251,1.251,0,0,1,1.768,0l1.415,1.415a1.251,1.251,0,0,1,0,1.767l-6.9,6.9a18.718,18.718,0,0,0-3.183-3.182ZM54.167,29.563a1.251,1.251,0,0,1,1.25-1.25h2a1.252,1.252,0,0,1,1.25,1.25v9.75a18.612,18.612,0,0,0-4.5,0ZM34.908,39.4a1.251,1.251,0,0,1,0-1.767l1.415-1.415a1.251,1.251,0,0,1,1.768,0l6.9,6.9a18.713,18.713,0,0,0-3.182,3.182ZM27,56.73a1.252,1.252,0,0,1,1.25-1.25H38a18.612,18.612,0,0,0,0,4.5H28.25A1.252,1.252,0,0,1,27,58.73Z" fill="#90c20e" data-original="#000000" style="" class=""></path></g></g></svg>